<?xml version="1.0" encoding="UTF-8"?>
<svg width="1200" height="320" viewBox="0 0 1200 320" fill="none" xmlns="http://www.w3.org/2000/svg" role="img" aria-label="MICACO logo">
  <defs>
    <linearGradient id="bg" x1="40" y1="40" x2="280" y2="280" gradientUnits="userSpaceOnUse">
      <stop offset="0" stop-color="#0EA5E9"/>
      <stop offset="0.55" stop-color="#10B981"/>
      <stop offset="1" stop-color="#22C55E"/>
    </linearGradient>
    <filter id="soft" x="-20%" y="-20%" width="140%" height="140%" color-interpolation-filters="sRGB">
      <feDropShadow dx="0" dy="8" stdDeviation="10" flood-color="#052e2b" flood-opacity="0.18"/>
    </filter>
  </defs>

  <g transform="translate(36,36)">
    <circle cx="124" cy="124" r="124" fill="url(#bg)" filter="url(#soft)"/>
    <path d="M124 44C152 50 174 68 184 96C168 82 148 76 124 78C100 76 80 82 64 96C74 68 96 50 124 44Z" fill="#083344" opacity="0.85"/>
    <path d="M124 60C144 64 160 74 170 90C156 80 140 76 124 76C108 76 92 80 78 90C88 74 104 64 124 60Z" fill="#083344" opacity="0.6"/>
    <path d="M124 102C164 102 192 130 192 170C192 210 164 234 124 234C84 234 56 210 56 170C56 130 84 102 124 102Z" fill="#F8FAFC" opacity="0.98"/>
    <path d="M124 114C155 114 176 135 176 170C176 205 155 220 124 220C93 220 72 205 72 170C72 135 93 114 124 114Z" fill="#E2E8F0" opacity="0.85"/>
    <circle cx="110" cy="158" r="6.5" fill="#0F172A" opacity="0.85"/>
    <circle cx="138" cy="158" r="6.5" fill="#0F172A" opacity="0.85"/>
    <circle cx="124" cy="180" r="6.5" fill="#0F172A" opacity="0.65"/>
  </g>

  <g transform="translate(340,90)">
    <text x="0" y="92" font-family="Inter, system-ui, -apple-system, Segoe UI, Roboto, Arial" font-size="104" font-weight="800" letter-spacing="2" fill="#0F172A">MICACO</text>
    <text x="4" y="150" font-family="Inter, system-ui, -apple-system, Segoe UI, Roboto, Arial" font-size="28" font-weight="600" fill="#334155">Mindoro Island Coconut Agriculture Cooperative</text>
  </g>
</svg>
