<?xml version="1.0" encoding="UTF-8"?>
<svg width="512" height="512" viewBox="0 0 512 512" fill="none" xmlns="http://www.w3.org/2000/svg" role="img" aria-label="MICACO mark">
  <defs>
    <linearGradient id="bg" x1="96" y1="64" x2="416" y2="448" gradientUnits="userSpaceOnUse">
      <stop offset="0" stop-color="#0EA5E9"/>
      <stop offset="0.55" stop-color="#10B981"/>
      <stop offset="1" stop-color="#22C55E"/>
    </linearGradient>
    <linearGradient id="shine" x1="168" y1="144" x2="344" y2="352" gradientUnits="userSpaceOnUse">
      <stop offset="0" stop-color="#FFFFFF" stop-opacity="0.65"/>
      <stop offset="1" stop-color="#FFFFFF" stop-opacity="0"/>
    </linearGradient>
    <filter id="soft" x="-20%" y="-20%" width="140%" height="140%" color-interpolation-filters="sRGB">
      <feDropShadow dx="0" dy="10" stdDeviation="14" flood-color="#052e2b" flood-opacity="0.22"/>
    </filter>
  </defs>

  <circle cx="256" cy="256" r="216" fill="url(#bg)" filter="url(#soft)"/>
  <path d="M168 152C206 122 268 112 320 132C356 146 382 174 396 206C350 162 260 144 186 174C176 178 170 160 168 152Z" fill="url(#shine)"/>

  <g>
    <path d="M257 132C298 140 330 166 344 204C321 182 292 174 257 176C222 174 193 182 170 204C184 166 216 140 257 132Z" fill="#083344" opacity="0.85"/>
    <path d="M258 160C288 164 312 178 326 200C305 186 283 180 258 180C233 180 211 186 190 200C204 178 228 164 258 160Z" fill="#083344" opacity="0.6"/>
    <path d="M256 214C322 214 368 260 368 322C368 384 322 420 256 420C190 420 144 384 144 322C144 260 190 214 256 214Z" fill="#F8FAFC" opacity="0.98"/>
    <path d="M256 234C308 234 344 270 344 322C344 374 308 400 256 400C204 400 168 374 168 322C168 270 204 234 256 234Z" fill="#E2E8F0" opacity="0.85"/>
    <circle cx="232" cy="304" r="10" fill="#0F172A" opacity="0.85"/>
    <circle cx="280" cy="304" r="10" fill="#0F172A" opacity="0.85"/>
    <circle cx="256" cy="340" r="10" fill="#0F172A" opacity="0.65"/>
    <path d="M156 362C188 388 220 402 256 402C292 402 324 388 356 362C356 392 314 436 256 436C198 436 156 392 156 362Z" fill="#0B1220" opacity="0.10"/>
  </g>
</svg>
